<?xml version="1.0" encoding="UTF-8"?>
<svg xmlns="http://www.w3.org/2000/svg" viewBox="0 0 600 420" fill="none">
  <rect width="600" height="420" rx="14" fill="#0f0f14"/>

  <!-- model wireframe -->
  <g stroke="#3a3a44" stroke-width="1.5" fill="none">
    <path d="M80 320 L280 260 L520 320 L320 380 Z"/>
    <path d="M80 240 L280 180 L520 240 L320 300 Z"/>
    <path d="M80 160 L280 100 L520 160 L320 220 Z"/>
    <path d="M80 160 L80 320 M520 160 L520 240 M520 240 L520 320"/>
    <path d="M280 100 L280 260 M320 220 L320 380"/>
  </g>
  <!-- highlighted members in maple red -->
  <g stroke="#C8102E" stroke-width="2.5" fill="none">
    <path d="M80 320 L280 260"/>
    <path d="M280 260 L520 320"/>
    <path d="M280 100 L280 260"/>
  </g>
  <!-- nodes -->
  <g fill="#ffffff">
    <circle cx="80" cy="320" r="4"/>
    <circle cx="280" cy="260" r="4"/>
    <circle cx="520" cy="320" r="4"/>
    <circle cx="320" cy="380" r="4"/>
    <circle cx="280" cy="100" r="4"/>
  </g>

  <!-- label chip -->
  <g font-family="Inter, sans-serif">
    <rect x="360" y="40" width="200" height="60" rx="10" fill="#1a1a20" stroke="#2a2a32"/>
    <text x="378" y="62" fill="#9b9ba4" font-size="11">Utilization</text>
    <text x="378" y="86" fill="#C8102E" font-size="22" font-weight="700">0.82</text>
    <text x="440" y="86" fill="#9b9ba4" font-size="11">ASCE 7-22</text>

    <rect x="40" y="40" width="260" height="60" rx="10" fill="#1a1a20" stroke="#2a2a32"/>
    <text x="58" y="62" fill="#9b9ba4" font-size="11">3D analysis model</text>
    <text x="58" y="86" fill="#ffffff" font-size="14" font-weight="600">Steel moment frame &#183; E-W</text>
  </g>
</svg>
